<?xml version="1.0" encoding="utf-8"?>
<!DOCTYPE svg PUBLIC "-//W3C//DTD SVG 1.0//EN" "http://www.w3.org/TR/2001/REC-SVG-20010904/DTD/svg10.dtd">
<svg version="1.0" xmlns="http://www.w3.org/2000/svg" width="2145px" height="417px" viewBox="0 0 2145 417" preserveAspectRatio="xMidYMid meet">
 <g fill="#ffffff">
  <path d="M0 208.5 l0 -208.5 1072.5 0 1072.5 0 0 208.5 0 208.5 -1072.5 0 -1072.5 0 0 -208.5z m319 161.2 c7 -3.5 11.7 -8.5 14.9 -15.5 3.5 -7.7 3.4 -13.6 -0.5 -21.4 -4.7 -9.8 -15.5 -17.3 -24.6 -17.3 -4.8 0 -13 2.3 -17 4.7 -6.4 3.9 -2.1 6.2 -71.6 -38.7 -14.3 -9.2 -34.5 -22.3 -44.9 -28.9 l-18.8 -12.1 0 -3.7 c-0.1 -2 0.5 -5.6 1.2 -7.9 l1.2 -4.2 128.7 -0.3 128.6 -0.2 0 3.1 c0 2.6 -1.6 4.6 -13 16 -14.5 14.5 -15.4 16.1 -10.1 20.4 1.6 1.3 3.6 2.4 4.7 2.4 1.8 0 48 -46 49.6 -49.3 1.3 -2.9 -1.9 -6.7 -25.4 -30.2 -20.9 -20.7 -22.5 -22.2 -25 -21.5 -1.4 0.3 -3.5 1.5 -4.7 2.5 -4.1 3.8 -3.1 5.7 10.9 19.8 12 12.1 13 13.4 13 16.6 l0 3.4 -128.4 0 -128.5 0 -1.4 -5 c-0.8 -2.8 -1.5 -6.5 -1.5 -8.4 0 -3.3 0.3 -3.4 17 -14.7 9.3 -6.3 17.6 -11.8 18.4 -12.4 1.8 -1 31.1 -20.9 41.2 -27.9 3.7 -2.5 13.2 -9 21.1 -14.3 7.9 -5.3 16.9 -11.5 20 -13.8 3.2 -2.1 6.1 -4 6.6 -4 0.6 0 1.7 -0.8 2.6 -1.9 2.3 -2.6 6.6 -2.3 13.1 0.7 13.7 6.3 29.6 -0.7 36.9 -16.1 3.7 -8 3.7 -13.2 0 -21.2 -3.3 -7 -8.6 -12.5 -15.4 -15.8 -3.8 -2 -6.1 -2.4 -11.9 -2.4 -4 0 -7.4 0.4 -7.8 0.8 -0.3 0.5 -1.8 1.1 -3.3 1.5 -4.6 1 -12.4 8.9 -15.4 15.5 -2.4 5.5 -2.5 6.3 -2 14.4 l0.6 8.7 -10.4 6.9 c-14.6 9.7 -56.2 37.8 -61.3 41.5 -2.3 1.7 -6.9 4.8 -10.2 7 -3.4 2.1 -12.8 8.5 -20.9 14.1 -31.2 21.3 -30.2 20.9 -37.4 14.4 -5.2 -4.6 -14.2 -8.9 -22.4 -10.8 -20.9 -4.8 -47.6 9 -57.8 30.3 -7.2 14.9 -7.3 26.5 -0.1 41.7 10.6 22.6 36.8 35.8 59.5 29.7 7.9 -2 16.4 -6.1 21.2 -10.2 2.5 -2.2 4.7 -3.4 6.6 -3.4 2 0 8.8 3.9 25 14.4 12.2 7.9 41.3 26.7 64.7 41.6 l42.6 27.3 -0.1 6.1 c-0.2 7.6 1.2 12.7 5 18.2 8.5 12.3 23.7 16.4 36.6 9.9z m356.5 -36.1 c36.7 -6 59.9 -24 66.6 -51.7 2.2 -9.5 2.3 -15.5 0.4 -24.4 -4.2 -18.5 -15 -31.4 -34.8 -41.5 -11.5 -5.9 -23.3 -10 -50.3 -17.3 -42.5 -11.5 -52.5 -16.5 -59.1 -28.5 -2.4 -4.4 -2.8 -6.1 -3.1 -14.3 -0.3 -7.9 -0.1 -10.1 1.8 -14.8 4.3 -11.5 16.8 -20.2 33.3 -23.5 9.9 -2 33.9 -1.4 42.5 1 14.8 4.1 27.6 12.8 35.1 24.1 2.1 3.2 3.9 5.8 4 5.9 0.2 0.3 25.8 -10 26.5 -10.6 0.6 -0.6 -4.3 -9.2 -7.7 -13.8 -13.3 -17.6 -33.5 -29.1 -60.7 -34.4 -6.8 -1.3 -11.5 -1.6 -24.7 -1.1 -14.5 0.4 -17.3 0.7 -25.6 3.3 -31 9.1 -48 24.1 -55.5 48.6 -3.8 12.7 -2.7 25.6 3.4 38.6 10 21.3 29.2 32.7 77.9 45.6 43.6 11.6 55.5 17.3 62 29.7 2.3 4.4 2.5 5.6 2.5 15.5 0 9.8 -0.2 11.1 -2.5 15.4 -3.6 6.9 -9.6 12.4 -17 15.9 -12.1 5.6 -16.7 6.4 -36.3 6.3 -16.1 0 -18.5 -0.3 -26.7 -2.5 -17.8 -4.7 -32.7 -15.1 -40.2 -27.9 -2 -3.4 -3.8 -6.1 -4.2 -6 -0.3 0.2 -6.3 3 -13.3 6.3 -7.1 3.3 -12.8 6.3 -12.8 6.8 0 1.5 8.6 13.7 13.3 18.9 7.1 7.7 15.6 13.8 28.1 19.9 23.3 11.5 49.6 15.1 77.3 10.5z m330.8 1.5 c7.4 -0.8 21.7 -3.9 25.8 -5.6 9 -3.5 19.7 -10.8 25.7 -17.3 4.7 -5.3 9.7 -12.8 8.7 -13.1 -0.5 -0.2 -5.7 -3 -11.6 -6.1 l-10.9 -6 -5.6 6.2 c-6.4 7.1 -15 12.2 -24.5 14.4 -7.9 1.9 -28.2 1.9 -36.1 0 -22.7 -5.4 -37.7 -23.8 -38.5 -47.5 l-0.2 -5.6 68.3 -0.3 68.3 -0.2 -0.6 -13.3 c-1.7 -42.5 -21.1 -70.2 -57.2 -81.4 -7.7 -2.4 -9.2 -2.5 -25.9 -2.5 -16.5 0.1 -18.2 0.2 -26 2.6 -4.7 1.4 -12.2 4.5 -16.8 6.9 -7 3.5 -10.1 6 -17.9 13.7 -7.8 7.7 -10.1 10.7 -13.6 17.7 -8.4 16.6 -11.5 29.4 -11.4 47.9 0.1 37.1 16.9 66.4 46.3 80.4 16.8 8 35.2 11.1 53.5 8.9z m742.7 -1.5 c18.8 -3.8 32.3 -10.9 43.8 -22.9 15.5 -16 22.4 -34 23.4 -60.3 0.4 -12.4 0.2 -15.8 -1.5 -24 -6.1 -29.3 -19.6 -48.7 -42 -60.1 -11.2 -5.7 -20.3 -8.5 -34.4 -10.3 -6.7 -0.8 -23.9 1.1 -33.1 3.7 -35.2 10.2 -55.9 36.4 -60.2 76.3 -1.9 17.1 1.6 37.4 9 53.3 12.5 26.5 36.2 42.4 69.4 46.2 5 0.7 18.3 -0.4 25.6 -1.8z m-875.1 -1.1 l6.5 -1.7 0.3 -12.4 0.3 -12.3 -3.5 0.7 c-5.9 1.2 -23.6 0.8 -28.7 -0.6 -3.3 -1 -6 -2.7 -8.9 -5.7 -7.4 -7.4 -7.3 -6.4 -8 -63.3 l-0.6 -50 2.2 -0.6 c1.2 -0.4 12.4 -0.7 24.9 -0.7 l22.5 0 0 -12.6 0 -12.6 -24.2 0 -24.2 0 -0.2 -10 c-0.2 -5.6 -0.3 -15.9 -0.3 -23.1 l0 -13 -15.5 -0.3 -15.6 -0.2 -0.2 23 -0.3 23.1 -15.5 0.3 -15.6 0.2 0 12.6 0 12.6 15.6 0.2 15.5 0.3 0.3 49.8 c0.2 45.6 0.4 50.4 2 57 4.9 19.5 16.7 32.6 34.3 38.3 4 1.3 8.1 2.6 9.1 2.9 3.7 0.9 21.6 -0.4 27.9 -2z m272.6 -2 l3.4 0 0 -54.3 c0 -51.9 0.1 -54.5 2 -61.2 2.6 -9.4 5.9 -15.1 11.7 -20.5 9.4 -8.6 19.2 -11.6 35.3 -11 13.6 0.6 19.4 2.8 26.5 10.1 5.9 5.9 8.5 11.6 10.1 21.5 0.6 3.5 0.9 27.8 0.9 60.5 l0 54.6 4 0.3 c2.1 0.2 9.2 0.2 15.8 0 l11.8 -0.3 0 -53.4 c0 -58 0.4 -62.7 5.1 -72.2 3.6 -7.1 9.1 -12.6 16.4 -16.2 8.7 -4.4 15.1 -5.5 27.1 -5 9.2 0.4 10.5 0.7 16.9 3.8 11.4 5.7 17.6 14.2 20.2 28 0.5 2.5 0.8 29.3 0.8 59.7 l0 55.1 4.5 0.6 c2.4 0.3 9.5 0.3 15.8 0 l11.4 -0.6 0 -58.4 0 -58.4 -2.3 -9.2 c-3.5 -13.9 -7.7 -21.8 -16.3 -30.4 -8.2 -8.1 -17.9 -13.4 -29.5 -16.1 -10 -2.4 -28.1 -1.6 -37.3 1.7 -13.2 4.7 -25.1 14.1 -31.4 24.7 -2.4 4.2 -3.2 4.8 -5.7 4.8 -2.6 0 -3.3 -0.7 -6.5 -6.1 -6.9 -11.8 -18.9 -20.7 -33.4 -24.7 -10.3 -2.8 -26.7 -2.2 -36 1.3 -12.1 4.7 -21.5 11.7 -28.2 21.6 -3.1 4.5 -4 5.1 -6.6 5.1 l-3.1 0 -0.3 -12.8 -0.3 -12.8 -12.6 -0.3 c-6.9 -0.2 -14 0 -15.5 0.3 l-3.1 0.6 0 84.6 0 84.6 3.5 0.4 c1.9 0.3 7.4 0.3 12.3 0.1 4.8 -0.2 10.4 -0.4 12.4 -0.4z m327.6 0 l7.4 0 -0.2 -71.9 -0.2 -72 24.8 -0.3 24.9 -0.2 0 -12.6 0 -12.6 -24.9 -0.2 -25 -0.3 0 -14.4 c0 -16.5 1.1 -21.7 5.4 -26.1 6.2 -6.4 8.6 -7 27.5 -7 l17 0 -0.3 -12.6 -0.3 -12.6 -6.1 -1 c-8.8 -1.6 -26.3 -1.5 -34 0.1 -10.3 2.1 -20.7 7.8 -27 14.6 -10.1 10.8 -13.5 21.3 -14.2 43.3 l-0.6 15.1 -14.1 0.3 -14.1 0.3 -0.3 12.7 -0.3 12.7 3.5 0.7 c2 0.3 8.5 0.6 14.5 0.6 l10.9 0 0 71.7 0 71.6 7.7 0.3 c4.2 0.2 8.2 0.2 8.8 0.1 0.7 -0.2 4.7 -0.3 8.8 -0.3z m455.5 -1.1 c0.4 -1.2 8.3 -26 17.7 -55.2 9.4 -29.1 18.3 -57.3 19.9 -62.7 l3 -9.6 3.9 0.3 3.8 0.3 4.8 15.8 c2.6 8.8 11.6 36.4 19.9 61.4 8.3 25.1 15.4 46.6 15.7 47.9 0.9 3.2 3.1 3.4 21.7 3.6 14.8 0.1 15.6 0 16.6 -1.9 0.6 -1 10.1 -28.6 21.1 -61.2 30.4 -90.1 34.5 -102.3 35.2 -105.4 l0.7 -2.8 -14.3 0 c-7.8 0 -15.1 0.3 -16.1 0.6 -1.6 0.4 -4.7 9.6 -19.8 58.8 -9.8 32.1 -19 62.3 -20.5 67 l-2.5 8.7 -3.2 -0.3 -3.3 -0.3 -8.7 -28.4 c-4.7 -15.6 -12 -39.5 -16.2 -53.1 -12 -39.5 -15.7 -51.5 -16.4 -52.4 -0.6 -0.8 -36.1 -0.5 -37.1 0.4 -0.6 0.7 -27.5 86.6 -38.7 124 l-3 10 -3.1 0 c-3 0 -3.2 -0.1 -5 -6.7 -1.1 -3.7 -5.1 -16.9 -8.8 -29.1 -3.7 -12.3 -11.5 -37.4 -17.1 -55.9 -5.7 -18.4 -10.8 -35.5 -11.5 -37.9 l-1.1 -4.5 -16.7 0 c-15.5 0 -16.7 0.1 -16 1.7 0.3 0.8 6.8 20 14.4 42.5 26.9 80 42 123.6 43.1 125 0.7 0.8 5.6 1.1 18.9 1.1 17.8 0 18 0 18.5 -2z m-327.2 -118 l0 -119.2 -15.8 0 -15.8 0 0 119.2 0 119.2 15.8 0 15.8 0 0 -119.2z"/>
  <path d="M95.9 250.4 c-10.5 -2.2 -19.3 -9.3 -24.1 -19.6 -2 -4.5 -2.4 -6.3 -2.4 -14.4 0 -11.1 1.8 -16.9 7 -23.6 8.5 -10.8 23.6 -15.5 39.3 -12.2 10.8 2.3 19 8.7 23.7 18.3 2.4 4.9 2.6 6.1 2.6 16.5 0 9.7 -0.3 11.8 -2.1 15.7 -3.5 7.7 -7.9 12.3 -15.7 16.1 -6.3 3.2 -7.8 3.4 -15.5 3.7 -4.7 0.1 -10.3 -0.2 -12.7 -0.7z"/>
  <path d="M939.4 228.4 c0.1 -15.8 11 -33.2 25.1 -40 8.6 -4.1 14.4 -5.2 27.8 -5.3 12.7 -0.1 18.5 1.1 27.5 5.7 13 6.6 22.9 22.8 22.9 37.7 l0 5.4 -51.7 0 -51.7 0 0 -3.4z"/>
  <path d="M1713.6 306.7 c-8.1 -2 -17.7 -7.4 -22.6 -12.8 -5.8 -6.3 -10.9 -17.6 -12.8 -28 -2 -10.6 -1.5 -35.1 0.8 -43.8 5.3 -19.5 17.9 -32.6 35.7 -37.2 7.1 -1.9 24.3 -1.9 31.5 0 18.7 4.7 30.8 17.3 36.5 37.7 1.3 4.8 1.7 9.6 1.7 23.3 0 15.1 -0.3 18.2 -2.1 25 -3.8 14.1 -10.3 23.8 -20 30.1 -9 5.9 -15.4 7.4 -30.4 7.3 -7.4 0 -14.9 -0.6 -18.2 -1.4z"/>
 </g>
 <g fill="#142fbf">
  <path d="M296 374.7 c-9.4 -3 -18 -11.5 -20.6 -20.3 -0.6 -2.1 -1.1 -6.7 -1.1 -10.1 l-0.1 -6.1 -42.4 -27.1 c-23.3 -14.9 -52.3 -33.6 -64.5 -41.5 l-22.3 -14.4 -3.8 3.4 c-13 11.1 -35.6 15 -53.4 9.3 -22.7 -7.4 -38.4 -28.9 -38.4 -52.5 0.1 -24 16.8 -45.5 41 -52.7 7.9 -2.4 20.7 -2.9 28.1 -1.1 8.3 2 17.2 6.2 22.5 10.9 l4.3 3.7 5.3 -3.4 c3 -1.9 12.9 -8.6 22.2 -14.9 9.2 -6.3 19.9 -13.5 23.7 -15.9 3.8 -2.3 7.8 -5 8.8 -6 1.9 -1.7 39.7 -27.4 59.7 -40.6 l10.3 -6.8 -0.8 -5.2 c-1 -6.5 0.2 -13.6 3.4 -19.8 2.7 -5.4 10.6 -12.8 14.5 -13.7 1.5 -0.4 3 -1 3.3 -1.5 0.4 -0.5 5.1 -0.8 10.6 -0.8 8.8 0 10.5 0.3 14.7 2.4 6.8 3.4 12.1 8.8 15.5 16 2.5 5.3 3 7.4 3 13.2 0 5.9 -0.5 7.9 -3 13.2 -3.4 7.4 -8.8 12.8 -15.9 16.3 -4.5 2.1 -6.5 2.5 -13.2 2.6 -6.8 0 -8.8 -0.4 -13.4 -2.6 l-5.5 -2.5 -2 1.9 c-1.1 1 -2.3 1.9 -2.7 1.9 -0.5 0 -3.4 1.9 -6.5 4 -3.1 2.2 -12.1 8.5 -20 13.8 -7.9 5.3 -17.4 11.8 -21.1 14.3 -10.1 7 -39.5 26.9 -41.2 27.9 -6.3 4 -35.5 23.8 -35.5 24.3 0 0.3 0.7 2.8 1.5 5.6 l1.4 5 125.7 0 c69.1 0 125.6 -0.3 125.6 -0.7 0 -0.4 -5.7 -6.3 -12.6 -13.2 -6.9 -6.8 -12.9 -13.6 -13.6 -15.1 -1.4 -3.5 -0.4 -8.4 2.4 -11 1.7 -1.6 3.7 -2.3 7.5 -2.6 l5.2 -0.5 23.6 23.6 c19.5 19.5 23.7 24.3 24.7 27.5 0.9 3.1 0.9 4.3 -0.1 6.2 -0.7 1.3 -11.7 12.9 -24.5 25.8 -24.3 24.7 -26.2 26.1 -31.8 24.2 -4.9 -1.7 -7.4 -5 -7.4 -10.3 l0 -4.6 13.5 -13.5 13.5 -13.5 -126.1 0.2 -126.1 0.3 -1.4 4.9 c-0.7 2.7 -1.2 5 -1 5.2 0.2 0.1 10.1 6.4 21.8 14.1 11.8 7.5 31.3 20.1 43.3 27.9 12 7.8 30.8 19.9 41.7 26.9 l19.8 12.8 3 -1.9 c8.5 -5.1 23.2 -6.3 31.6 -2.5 7.3 3.3 12.3 8.1 15.8 15.3 2.7 5.5 3.1 7.1 3.1 13.7 -0.1 12.8 -6.1 22.7 -17.7 28.7 -4.7 2.4 -6.8 2.9 -13.5 3.2 -5.2 0.2 -9.4 -0.2 -12.2 -1.1z m-174.4 -130.2 c7.5 -3.7 11.9 -8.3 15.5 -16 1.7 -3.6 2.1 -6.2 2.1 -12.9 0 -7.3 -0.4 -9 -2.6 -13.7 -5 -10.3 -13.6 -16.6 -25.6 -18.6 -5.5 -0.9 -7.4 -0.8 -12.8 0.5 -16 4 -26.1 16.7 -26 32.8 0 14.7 11.4 28 26.4 31.2 7.7 1.6 15.4 0.6 22.9 -3.2z"/>
  <path d="M638.2 337.9 c-24.4 -2 -50.4 -12.7 -66.4 -27.3 -5.7 -5.2 -14.2 -16.3 -17.9 -23.1 -2 -3.9 -2.1 -4.6 -0.9 -5.8 2.6 -2.4 27.6 -13.6 30.4 -13.6 2.5 0 3.3 0.7 6.4 6.1 7.5 12.9 22.4 23.3 40.2 28 7.9 2.1 10.9 2.4 23.9 2.5 16.6 0.1 21.9 -0.9 33.5 -6.3 7.4 -3.5 13.4 -9.1 17 -15.9 2.1 -4 2.5 -5.8 2.5 -12.6 0 -6.8 -0.4 -8.6 -2.5 -12.7 -6.5 -12.4 -18.4 -18.1 -62 -29.7 -40.7 -10.9 -58.3 -19.4 -70.8 -34.3 -4.6 -5.5 -9.5 -15.5 -11.4 -23 -2 -8.4 -1.7 -24.3 0.9 -32.6 3.3 -10.6 8.2 -19.3 15 -26.2 10.3 -10.6 21.8 -16.9 40.5 -22.5 8.7 -2.5 10.6 -2.8 28.4 -3.2 15.8 -0.5 20.6 -0.2 27.5 1.1 27.2 5.3 47.1 16.7 60.8 34.5 3 3.9 9.5 16 9.5 17.7 0 0.8 -32.7 14.8 -33.1 14.1 -2.7 -5.2 -9.4 -14 -13.7 -17.9 -6 -5.6 -17 -11.5 -26.3 -14 -8.7 -2.3 -27.4 -2.9 -36.9 -1 -10.5 2 -21.6 7.5 -27.1 13.4 -11.3 12.1 -10.7 31.3 1.4 41.6 8.4 7.2 18.6 11.2 52.8 20.5 27 7.4 38.8 11.5 50.3 17.3 24.5 12.6 36.3 30.7 36.3 56 0 17.5 -6.1 32.1 -18.2 44 -14.8 14.6 -33.2 22 -61.6 24.7 -11.2 1 -15.1 1 -28.7 -0.1z"/>
  <path d="M979.9 337.9 c-33.7 -4.4 -59.4 -23.9 -70.2 -53.5 -4.7 -12.8 -6.1 -21.6 -6.1 -38.5 0 -21.5 2.7 -33.3 11.5 -50.7 3.5 -7 5.8 -10 13.6 -17.7 7.7 -7.7 10.9 -10.1 17.9 -13.7 4.6 -2.4 12.1 -5.5 16.8 -6.9 7.9 -2.4 9.1 -2.6 28.8 -2.6 19.7 0 20.8 0 28.7 2.5 24.3 7.5 40.9 22.3 49.5 43.8 5.3 13.5 7.2 23.1 7.6 40.3 l0.6 16.1 -68.3 0.2 -68.3 0.3 0.3 2.8 c1.1 11.9 6.4 23.6 14.3 31.6 10 9.9 22.4 14.5 39.4 14.5 17.3 0 29.8 -4.9 39.6 -15.6 3.1 -3.4 5.6 -6.4 5.6 -6.8 0 -0.5 0.7 -0.8 1.8 -0.8 2.5 0 29.5 14.7 29.1 15.9 -0.5 1.8 -7.7 12.1 -11.3 16 -3.4 3.8 -11.4 10.1 -16.4 12.9 -6.9 3.8 -9.5 4.8 -19.3 7.3 -14.8 3.5 -30.4 4.5 -45 2.7z m60 -111.4 c0 -1.5 -0.7 -4.9 -1.5 -7.7 -4.7 -15.8 -15.3 -26.3 -31.6 -31.2 -6.5 -2 -21.1 -2 -28.8 -0.4 -17.2 4 -30.4 17.3 -34.5 34.6 -0.7 3.3 -1.4 6.1 -1.4 6.6 0 0.4 22 0.7 48.9 0.7 l48.9 0 0 -2.6z"/>
  <path d="M1720.5 338.2 c-32.6 -3.4 -56.9 -19.6 -69.4 -46.2 -15 -31.7 -12.3 -76.7 6.1 -103.7 13.6 -19.9 36.5 -32.4 64.1 -34.8 35.4 -3.3 65.8 10 82.7 35.8 18.2 27.9 20.6 74.7 5.3 104.9 -6.2 12.4 -17.8 25 -28.7 31.6 -16.1 9.5 -40.6 14.6 -60.2 12.5z m27.2 -34.7 c11.7 -3.6 21.6 -12.1 27.3 -23.4 4.7 -9.2 6.5 -18.6 6.4 -34.4 0 -16.2 -1.1 -21.9 -6.5 -33.2 -7.8 -16.4 -24.7 -26.3 -44.6 -26.3 -23.9 0 -42 14.3 -48.5 38.6 -2.3 8.7 -2.8 28 -0.8 38.2 2 10.4 7.1 21.7 12.8 28 4.9 5.5 14.5 10.9 22.6 12.8 8.5 2 24.1 1.9 31.3 -0.4z"/>
  <path d="M843 337.4 c-24.6 -6.2 -37.8 -18.8 -43.3 -41.1 -1.7 -6.5 -1.9 -11.6 -2 -57 l-0.3 -49.8 -15.5 -0.3 -15.6 -0.2 0 -15.4 0 -15.4 15.6 -0.2 15.5 -0.3 0.3 -23.1 0.2 -23 18.4 0.2 18.3 0.3 0.1 13 c0.1 7.2 0.2 17.5 0.3 23.1 l0.1 10 24.2 0 24.2 0 0 15.4 0 15.4 -22.5 0 c-12.5 0 -23.6 0.3 -24.7 0.6 l-2.1 0.6 0.5 47.1 c0.6 53.8 0.5 53.3 7.8 60.7 7.8 7.7 18.8 9.2 39 5 l2 -0.5 -0.2 15.6 -0.3 15.5 -6.5 1.8 c-6.4 1.7 -29.2 3.1 -33.5 2z"/>
  <path d="M1118.9 333.6 l-3.5 -0.4 0 -87.4 0 -87.4 3.1 -0.6 c1.6 -0.3 9.9 -0.5 18.3 -0.3 l15.4 0.3 0.5 12.9 0.5 12.9 3.6 -5.3 c6.8 -9.9 16 -17 28.3 -21.7 5.4 -2 8.1 -2.4 20.2 -2.9 12.4 -0.4 14.8 -0.2 21.4 1.6 14.5 4 26.5 12.8 33.4 24.7 l3.5 6.1 3.7 -5.6 c7.1 -11.1 17.5 -19.1 30.7 -23.8 6 -2.1 8.7 -2.5 21.6 -2.9 17.3 -0.5 23.6 0.7 35.8 6.5 6.1 2.9 9.4 5.3 15 10.8 8.6 8.6 12.8 16.5 16.3 30.4 l2.3 9.2 0 61.2 0 61.2 -13.4 0.7 c-7.3 0.3 -15.6 0.4 -18.6 0 l-5.2 -0.7 0 -55.1 c0 -30.4 -0.4 -57.2 -0.8 -59.7 -2.6 -13.7 -8.8 -22.3 -20 -27.9 -19.6 -9.7 -45.4 -1.5 -55 17.3 -4.7 9.5 -5.1 14.2 -5.1 72.2 l0 53.4 -9 0.1 c-5 0.1 -10.6 0.3 -12.4 0.4 -1.8 0.1 -6.1 0 -9.5 -0.3 l-6.3 -0.5 0 -54.6 c0 -56.1 -0.4 -62 -3.8 -71.4 -2.8 -7.3 -10.7 -15.2 -18.1 -18.1 -15.3 -5.8 -33.6 -2.4 -45.4 8.4 -5.9 5.4 -9.1 11.1 -11.7 20.5 -1.9 6.7 -2 9.2 -2 61.1 l0 54.1 -10 0.6 c-10 0.7 -17.4 0.7 -23.7 0z"/>
  <path d="M1453.6 333.6 l-7.7 -0.4 0 -71.6 0 -71.7 -10.9 0 c-6.1 0 -12.6 -0.3 -14.5 -0.6 l-3.4 -0.7 0.2 -15.5 0.3 -15.5 14.1 -0.3 14.1 -0.3 0.6 -15.1 c0.7 -22 4.1 -32.5 14.2 -43.3 6.3 -6.8 16.7 -12.5 27 -14.6 7.8 -1.6 30.6 -1.7 39.6 -0.1 l6.1 1 0.3 16 0.2 16.1 -3 -0.7 c-1.7 -0.4 -9.3 -0.7 -17 -0.7 -15.5 0 -18.3 0.8 -24.4 7 -4.1 4.2 -5.3 9.7 -5.4 23.3 l0 11.6 25 0.3 24.9 0.2 0 15.4 0 15.4 -24.8 0.2 -24.8 0.3 0.2 72 0.1 71.9 -6 0 c-3.3 0 -8.5 0.2 -11.5 0.4 -3 0.1 -8.9 0.1 -13.1 -0.1z"/>
  <path d="M1576.4 333.6 l-8.7 -0.4 0 -121.9 0 -122 18.6 0 18.6 0 0 122 0 122 -8.1 0 c-4.6 0 -9 0.2 -10.1 0.3 -1 0.2 -5.8 0.2 -10.4 0z"/>
  <path d="M1889.3 333.1 c-2.2 -2.9 -59.2 -171.8 -58.6 -173.5 0.4 -1 4.1 -1.3 19.9 -1.3 l19.4 0 1.1 4.5 c0.7 2.4 5.8 19.5 11.5 37.9 5.7 18.4 13.4 43.6 17.1 55.9 3.7 12.3 7.8 25.5 8.9 29.3 l2 7 3.2 -10.2 c1.8 -5.6 7.4 -23.8 12.6 -40.5 14.2 -46.1 25.9 -83.2 26.4 -83.8 0.8 -0.8 41.4 -1.2 42.3 -0.4 0.5 0.5 3.4 9 6.4 19 3 10 8.8 28.7 12.7 41.4 3.9 12.8 10.4 34.2 14.5 47.5 4.1 13.3 7.6 24.9 7.9 25.6 0.3 0.7 2 -3.2 3.7 -8.8 35.8 -117 38.1 -124.2 39.9 -124.7 3.3 -0.9 36.7 -0.6 37.2 0.3 0.3 0.5 -3.4 12.8 -8.3 27.3 -15.9 48.1 -48.8 144.9 -49.9 146.9 -1 2 -1.5 2 -21.5 1.8 -13.7 -0.1 -20.7 -0.5 -21.1 -1.2 -0.5 -0.6 -2.5 -6.2 -4.7 -12.7 -2 -6.4 -9 -27.6 -15.5 -47 -6.4 -19.6 -14 -42.7 -16.7 -51.7 -2.7 -8.8 -5.4 -16.3 -6 -16.5 -0.7 -0.3 -2.2 3.3 -4 9.2 -1.7 5.3 -10.6 33.5 -20 62.7 -9.4 29.2 -17.3 54 -17.7 55.2 -0.6 2 -0.7 2 -21.3 2 -15.5 0 -21 -0.3 -21.7 -1.1z"/>
 </g>
</svg>