<svg width="2068" height="328" xmlns="http://www.w3.org/2000/svg" aria-labelledby="title desc" role="img">
 <g id="Layer_1">
  <title>Layer 1</title>
  <path id="svg_1" d="m246.6,327.09999c-9.4,-3 -18,-11.5 -20.6,-20.3c-0.6,-2.1 -1.1,-6.7 -1.1,-10.1l-0.1,-6.1l-42.4,-27.1c-23.3,-14.9 -52.3,-33.6 -64.5,-41.5l-22.3,-14.4l-3.8,3.4c-13,11.1 -35.6,15 -53.4,9.3c-22.7,-7.4 -38.4,-28.9 -38.4,-52.5c0.1,-24 16.8,-45.5 41,-52.7c7.9,-2.4 20.7,-2.9 28.1,-1.1c8.3,2 17.2,6.2 22.5,10.9l4.3,3.7l5.3,-3.4c3,-1.9 12.9,-8.6 22.2,-14.9c9.2,-6.3 19.9,-13.5 23.7,-15.9c3.8,-2.3 7.8,-5 8.8,-6c1.9,-1.7 39.7,-27.4 59.7,-40.6l10.3,-6.8l-0.8,-5.2c-1,-6.5 0.2,-13.6 3.4,-19.8c2.7,-5.4 10.6,-12.8 14.5,-13.7c1.5,-0.4 3,-1 3.3,-1.5c0.4,-0.5 5.1,-0.8 10.6,-0.8c8.8,0 10.5,0.3 14.7,2.4c6.8,3.4 12.1,8.8 15.5,16c2.5,5.3 3,7.4 3,13.2c0,5.9 -0.5,7.9 -3,13.2c-3.4,7.4 -8.8,12.8 -15.9,16.3c-4.5,2.1 -6.5,2.5 -13.2,2.6c-6.8,0 -8.8,-0.4 -13.4,-2.6l-5.5,-2.5l-2,1.9c-1.1,1 -2.3,1.9 -2.7,1.9c-0.5,0 -3.4,1.9 -6.5,4c-3.1,2.2 -12.1,8.5 -20,13.8c-7.9,5.3 -17.4,11.8 -21.1,14.3c-10.1,7 -39.5,26.9 -41.2,27.9c-6.3,4 -35.5,23.8 -35.5,24.3c0,0.3 0.7,2.8 1.5,5.6l1.4,5l125.7,0c69.1,0 125.6,-0.3 125.6,-0.7c0,-0.4 -5.7,-6.3 -12.6,-13.2c-6.9,-6.8 -12.9,-13.6 -13.6,-15.1c-1.4,-3.5 -0.4,-8.4 2.4,-11c1.7,-1.6 3.7,-2.3 7.5,-2.6l5.2,-0.5l23.6,23.6c19.5,19.5 23.7,24.3 24.7,27.5c0.9,3.1 0.9,4.3 -0.1,6.2c-0.7,1.3 -11.7,12.9 -24.5,25.8c-24.3,24.7 -26.2,26.1 -31.8,24.2c-4.9,-1.7 -7.4,-5 -7.4,-10.3l0,-4.6l13.5,-13.5l13.5,-13.5l-126.1,0.2l-126.1,0.3l-1.4,4.9c-0.7,2.7 -1.2,5 -1,5.2c0.2,0.1 10.1,6.4 21.8,14.1c11.8,7.5 31.3,20.1 43.3,27.9c12,7.8 30.8,19.9 41.7,26.9l19.8,12.8l3,-1.9c8.5,-5.1 23.2,-6.3 31.6,-2.5c7.3,3.3 12.3,8.1 15.8,15.3c2.7,5.5 3.1,7.1 3.1,13.7c-0.1,12.8 -6.1,22.7 -17.7,28.7c-4.7,2.4 -6.8,2.9 -13.5,3.2c-5.2,0.2 -9.4,-0.2 -12.2,-1.1l-0.2,-0.2zm-174.4,-130.2c7.5,-3.7 11.9,-8.3 15.5,-16c1.7,-3.6 2.1,-6.2 2.1,-12.9c0,-7.3 -0.4,-9 -2.6,-13.7c-5,-10.3 -13.6,-16.6 -25.6,-18.6c-5.5,-0.9 -7.4,-0.8 -12.8,0.5c-16,4 -26.1,16.7 -26,32.8c0,14.7 11.4,28 26.4,31.2c7.7,1.6 15.4,0.6 22.9,-3.2l0.1,-0.1z"/>
  <path id="svg_2" d="m588.8,290.29999c-24.4,-2 -50.4,-12.7 -66.4,-27.3c-5.7,-5.2 -14.2,-16.3 -17.9,-23.1c-2,-3.9 -2.1,-4.6 -0.9,-5.8c2.6,-2.4 27.6,-13.6 30.4,-13.6c2.5,0 3.3,0.7 6.4,6.1c7.5,12.9 22.4,23.3 40.2,28c7.9,2.1 10.9,2.4 23.9,2.5c16.6,0.1 21.9,-0.9 33.5,-6.3c7.4,-3.5 13.4,-9.1 17,-15.9c2.1,-4 2.5,-5.8 2.5,-12.6c0,-6.8 -0.4,-8.6 -2.5,-12.7c-6.5,-12.4 -18.4,-18.1 -62,-29.7c-40.7,-10.9 -58.3,-19.4 -70.8,-34.3c-4.6,-5.5 -9.5,-15.5 -11.4,-23c-2,-8.4 -1.7,-24.3 0.9,-32.6c3.3,-10.6 8.2,-19.3 15,-26.2c10.3,-10.6 21.8,-16.9 40.5,-22.5c8.7,-2.5 10.6,-2.8 28.4,-3.2c15.8,-0.5 20.6,-0.2 27.5,1.1c27.2,5.3 47.1,16.7 60.8,34.5c3,3.9 9.5,16 9.5,17.7c0,0.8 -32.7,14.8 -33.1,14.1c-2.7,-5.2 -9.4,-14 -13.7,-17.9c-6,-5.6 -17,-11.5 -26.3,-14c-8.7,-2.3 -27.4,-2.9 -36.9,-1c-10.5,2 -21.6,7.5 -27.1,13.4c-11.3,12.1 -10.7,31.3 1.4,41.6c8.4,7.2 18.6,11.2 52.8,20.5c27,7.4 38.8,11.5 50.3,17.3c24.5,12.6 36.3,30.7 36.3,56c0,17.5 -6.1,32.1 -18.2,44c-14.8,14.6 -33.2,22 -61.6,24.7c-11.2,1 -15.1,1 -28.7,-0.1l0.2,0.3z"/>
  <path id="svg_3" d="m930.5,290.29999c-33.7,-4.4 -59.4,-23.9 -70.2,-53.5c-4.7,-12.8 -6.1,-21.6 -6.1,-38.5c0,-21.5 2.7,-33.3 11.5,-50.7c3.5,-7 5.8,-10 13.6,-17.7c7.7,-7.7 10.9,-10.1 17.9,-13.7c4.6,-2.4 12.1,-5.5 16.8,-6.9c7.9,-2.4 9.1,-2.6 28.8,-2.6c19.7,0 20.8,0 28.7,2.5c24.3,7.5 40.9,22.3 49.5,43.8c5.3,13.5 7.2,23.1 7.6,40.3l0.6,16.1l-68.3,0.2l-68.3,0.3l0.3,2.8c1.1,11.9 6.4,23.6 14.3,31.6c10,9.9 22.4,14.5 39.4,14.5c17.3,0 29.8,-4.9 39.6,-15.6c3.1,-3.4 5.6,-6.4 5.6,-6.8c0,-0.5 0.7,-0.8 1.8,-0.8c2.5,0 29.5,14.7 29.1,15.9c-0.5,1.8 -7.7,12.1 -11.3,16c-3.4,3.8 -11.4,10.1 -16.4,12.9c-6.9,3.8 -9.5,4.8 -19.3,7.3c-14.8,3.5 -30.4,4.5 -45,2.7l-0.2,-0.1zm60,-111.4c0,-1.5 -0.7,-4.9 -1.5,-7.7c-4.7,-15.8 -15.3,-26.3 -31.6,-31.2c-6.5,-2 -21.1,-2 -28.8,-0.4c-17.2,4 -30.4,17.3 -34.5,34.6c-0.7,3.3 -1.4,6.1 -1.4,6.6c0,0.4 22,0.7 48.9,0.7l48.9,0l0,-2.6z"/>
  <path id="svg_4" d="m1671.1,290.59999c-32.6,-3.4 -56.9,-19.6 -69.4,-46.2c-15,-31.7 -12.3,-76.7 6.1,-103.7c13.6,-19.9 36.5,-32.4 64.1,-34.8c35.4,-3.3 65.8,10 82.7,35.8c18.2,27.9 20.6,74.7 5.3,104.9c-6.2,12.4 -17.8,25 -28.7,31.6c-16.1,9.5 -40.6,14.6 -60.2,12.5l0.1,-0.1zm27.2,-34.7c11.7,-3.6 21.6,-12.1 27.3,-23.4c4.7,-9.2 6.5,-18.6 6.4,-34.4c0,-16.2 -1.1,-21.9 -6.5,-33.2c-7.8,-16.4 -24.7,-26.3 -44.6,-26.3c-23.9,0 -42,14.3 -48.5,38.6c-2.3,8.7 -2.8,28 -0.8,38.2c2,10.4 7.1,21.7 12.8,28c4.9,5.5 14.5,10.9 22.6,12.8c8.5,2 24.1,1.9 31.3,-0.4l0,0.1z"/>
  <path id="svg_5" d="m793.6,289.79999c-24.6,-6.2 -37.8,-18.8 -43.3,-41.1c-1.7,-6.5 -1.9,-11.6 -2,-57l-0.3,-49.8l-15.5,-0.3l-15.6,-0.2l0,-15.4l0,-15.4l15.6,-0.2l15.5,-0.3l0.3,-23.1l0.2,-23l18.4,0.2l18.3,0.3l0.1,13c0.1,7.2 0.2,17.5 0.3,23.1l0.1,10l24.2,0l24.2,0l0,15.4l0,15.4l-22.5,0c-12.5,0 -23.6,0.3 -24.7,0.6l-2.1,0.6l0.5,47.1c0.6,53.8 0.5,53.3 7.8,60.7c7.8,7.7 18.8,9.2 39,5l2,-0.5l-0.2,15.6l-0.3,15.5l-6.5,1.8c-6.4,1.7 -29.2,3.1 -33.5,2z"/>
  <path id="svg_6" d="m1069.5,285.99999l-3.5,-0.4l0,-87.4l0,-87.4l3.1,-0.6c1.6,-0.3 9.9,-0.5 18.3,-0.3l15.4,0.3l0.5,12.9l0.5,12.9l3.6,-5.3c6.8,-9.9 16,-17 28.3,-21.7c5.4,-2 8.1,-2.4 20.2,-2.9c12.4,-0.4 14.8,-0.2 21.4,1.6c14.5,4 26.5,12.8 33.4,24.7l3.5,6.1l3.7,-5.6c7.1,-11.1 17.5,-19.1 30.7,-23.8c6,-2.1 8.7,-2.5 21.6,-2.9c17.3,-0.5 23.6,0.7 35.8,6.5c6.1,2.9 9.4,5.3 15,10.8c8.6,8.6 12.8,16.5 16.3,30.4l2.3,9.2l0,61.2l0,61.2l-13.4,0.7c-7.3,0.3 -15.6,0.4 -18.6,0l-5.2,-0.7l0,-55.1c0,-30.4 -0.4,-57.2 -0.8,-59.7c-2.6,-13.7 -8.8,-22.3 -20,-27.9c-19.6,-9.7 -45.4,-1.5 -55,17.3c-4.7,9.5 -5.1,14.2 -5.1,72.2l0,53.4l-9,0.1c-5,0.1 -10.6,0.3 -12.4,0.4c-1.8,0.1 -6.1,0 -9.5,-0.3l-6.3,-0.5l0,-54.6c0,-56.1 -0.4,-62 -3.8,-71.4c-2.8,-7.3 -10.7,-15.2 -18.1,-18.1c-15.3,-5.8 -33.6,-2.4 -45.4,8.4c-5.9,5.4 -9.1,11.1 -11.7,20.5c-1.9,6.7 -2,9.2 -2,61.1l0,54.1l-10,0.6c-10,0.7 -17.4,0.7 -23.7,0l-0.1,0z"/>
  <path id="svg_7" d="m1404.2,285.99999l-7.7,-0.4l0,-71.6l0,-71.7l-10.9,0c-6.1,0 -12.6,-0.3 -14.5,-0.6l-3.4,-0.7l0.2,-15.5l0.3,-15.5l14.1,-0.3l14.1,-0.3l0.6,-15.1c0.7,-22 4.1,-32.5 14.2,-43.3c6.3,-6.8 16.7,-12.5 27,-14.6c7.8,-1.6 30.6,-1.7 39.6,-0.1l6.1,1l0.3,16l0.2,16.1l-3,-0.7c-1.7,-0.4 -9.3,-0.7 -17,-0.7c-15.5,0 -18.3,0.8 -24.4,7c-4.1,4.2 -5.3,9.7 -5.4,23.3l0,11.6l25,0.3l24.9,0.2l0,15.4l0,15.4l-24.8,0.2l-24.8,0.3l0.2,72l0.1,71.9l-6,0c-3.3,0 -8.5,0.2 -11.5,0.4c-3,0.1 -8.9,0.1 -13.1,-0.1l-0.4,0.1z"/>
  <path id="svg_8" d="m1527,285.99999l-8.7,-0.4l0,-121.9l0,-122l18.6,0l18.6,0l0,122l0,122l-8.1,0c-4.6,0 -9,0.2 -10.1,0.3c-1,0.2 -5.8,0.2 -10.4,0l0.1,0z"/>
  <path id="svg_9" d="m1839.9,285.49999c-2.2,-2.9 -59.2,-171.8 -58.6,-173.5c0.4,-1 4.1,-1.3 19.9,-1.3l19.4,0l1.1,4.5c0.7,2.4 5.8,19.5 11.5,37.9c5.7,18.4 13.4,43.6 17.1,55.9c3.7,12.3 7.8,25.5 8.9,29.3l2,7l3.2,-10.2c1.8,-5.6 7.4,-23.8 12.6,-40.5c14.2,-46.1 25.9,-83.2 26.4,-83.8c0.8,-0.8 41.4,-1.2 42.3,-0.4c0.5,0.5 3.4,9 6.4,19c3,10 8.8,28.7 12.7,41.4c3.9,12.8 10.4,34.2 14.5,47.5c4.1,13.3 7.6,24.9 7.9,25.6c0.3,0.7 2,-3.2 3.7,-8.8c35.8,-117 38.1,-124.2 39.9,-124.7c3.3,-0.9 36.7,-0.6 37.2,0.3c0.3,0.5 -3.4,12.8 -8.3,27.3c-15.9,48.1 -48.8,144.9 -49.9,146.9c-1,2 -1.5,2 -21.5,1.8c-13.7,-0.1 -20.7,-0.5 -21.1,-1.2c-0.5,-0.6 -2.5,-6.2 -4.7,-12.7c-2,-6.4 -9,-27.6 -15.5,-47c-6.4,-19.6 -14,-42.7 -16.7,-51.7c-2.7,-8.8 -5.4,-16.3 -6,-16.5c-0.7,-0.3 -2.2,3.3 -4,9.2c-1.7,5.3 -10.6,33.5 -20,62.7c-9.4,29.2 -17.3,54 -17.7,55.2c-0.6,2 -0.7,2 -21.3,2c-15.5,0 -21,-0.3 -21.7,-1.1l0.3,-0.1z"/>
 </g>

</svg>